<?xml version="1.0" standalone="no"?>
<svg xmlns:xlink="http://www.w3.org/1999/xlink" id="wave" style="transform:rotate(0deg); transition: 0.3s" viewBox="0 0 1440 180" version="1.1" xmlns="http://www.w3.org/2000/svg"><defs><linearGradient id="sw-gradient-0" x1="0" x2="0" y1="1" y2="0"><stop stop-color="rgba(223.495, 222.11, 221.665, 1)" offset="0%"/><stop stop-color="rgba(255, 255, 255, 1)" offset="100%"/></linearGradient></defs><path style="transform:translate(0, 0px); opacity:1" fill="url(#sw-gradient-0)" d="M0,0L34.3,9C68.6,18,137,36,206,60C274.3,84,343,114,411,117C480,120,549,96,617,84C685.7,72,754,72,823,60C891.4,48,960,24,1029,15C1097.1,6,1166,12,1234,30C1302.9,48,1371,78,1440,102C1508.6,126,1577,144,1646,153C1714.3,162,1783,162,1851,159C1920,156,1989,150,2057,123C2125.7,96,2194,48,2263,48C2331.4,48,2400,96,2469,114C2537.1,132,2606,120,2674,102C2742.9,84,2811,60,2880,45C2948.6,30,3017,24,3086,24C3154.3,24,3223,30,3291,51C3360,72,3429,108,3497,111C3565.7,114,3634,84,3703,66C3771.4,48,3840,42,3909,60C3977.1,78,4046,120,4114,117C4182.9,114,4251,66,4320,63C4388.6,60,4457,102,4526,99C4594.3,96,4663,48,4731,39C4800,30,4869,60,4903,75L4937.1,90L4937.1,180L4902.9,180C4868.6,180,4800,180,4731,180C4662.9,180,4594,180,4526,180C4457.1,180,4389,180,4320,180C4251.4,180,4183,180,4114,180C4045.7,180,3977,180,3909,180C3840,180,3771,180,3703,180C3634.3,180,3566,180,3497,180C3428.6,180,3360,180,3291,180C3222.9,180,3154,180,3086,180C3017.1,180,2949,180,2880,180C2811.4,180,2743,180,2674,180C2605.7,180,2537,180,2469,180C2400,180,2331,180,2263,180C2194.3,180,2126,180,2057,180C1988.6,180,1920,180,1851,180C1782.9,180,1714,180,1646,180C1577.1,180,1509,180,1440,180C1371.4,180,1303,180,1234,180C1165.7,180,1097,180,1029,180C960,180,891,180,823,180C754.3,180,686,180,617,180C548.6,180,480,180,411,180C342.9,180,274,180,206,180C137.1,180,69,180,34,180L0,180Z"/><defs><linearGradient id="sw-gradient-1" x1="0" x2="0" y1="1" y2="0"><stop stop-color="rgba(205.281, 205.281, 205.281, 1)" offset="0%"/><stop stop-color="rgba(232.602, 232.602, 232.602, 1)" offset="100%"/></linearGradient></defs><path style="transform:translate(0, 50px); opacity:0.9" fill="url(#sw-gradient-1)" d="M0,126L34.3,105C68.6,84,137,42,206,21C274.3,0,343,0,411,15C480,30,549,60,617,87C685.7,114,754,138,823,126C891.4,114,960,66,1029,51C1097.1,36,1166,54,1234,78C1302.9,102,1371,132,1440,132C1508.6,132,1577,102,1646,75C1714.3,48,1783,24,1851,36C1920,48,1989,96,2057,120C2125.7,144,2194,144,2263,144C2331.4,144,2400,144,2469,120C2537.1,96,2606,48,2674,24C2742.9,0,2811,0,2880,15C2948.6,30,3017,60,3086,72C3154.3,84,3223,78,3291,87C3360,96,3429,120,3497,129C3565.7,138,3634,132,3703,108C3771.4,84,3840,42,3909,27C3977.1,12,4046,24,4114,33C4182.9,42,4251,48,4320,45C4388.6,42,4457,30,4526,42C4594.3,54,4663,90,4731,90C4800,90,4869,54,4903,36L4937.1,18L4937.1,180L4902.9,180C4868.6,180,4800,180,4731,180C4662.9,180,4594,180,4526,180C4457.1,180,4389,180,4320,180C4251.4,180,4183,180,4114,180C4045.7,180,3977,180,3909,180C3840,180,3771,180,3703,180C3634.3,180,3566,180,3497,180C3428.6,180,3360,180,3291,180C3222.9,180,3154,180,3086,180C3017.1,180,2949,180,2880,180C2811.4,180,2743,180,2674,180C2605.7,180,2537,180,2469,180C2400,180,2331,180,2263,180C2194.3,180,2126,180,2057,180C1988.6,180,1920,180,1851,180C1782.9,180,1714,180,1646,180C1577.1,180,1509,180,1440,180C1371.4,180,1303,180,1234,180C1165.7,180,1097,180,1029,180C960,180,891,180,823,180C754.3,180,686,180,617,180C548.6,180,480,180,411,180C342.9,180,274,180,206,180C137.1,180,69,180,34,180L0,180Z"/></svg>